<svg version="1.1" id="Layer_1" xmlns="http://www.w3.org/2000/svg" xmlns:xlink="http://www.w3.org/1999/xlink" x="0px" y="0px"
	 width="100%" viewBox="0 0 1024 576" enable-background="new 0 0 1024 576" xml:space="preserve">
<path fill="#000000" opacity="1.000000" stroke="none" 
	d="
M528.663818,375.894409 
	C513.871094,378.422150 499.662781,377.233368 485.651001,373.742340 
	C476.774231,371.530731 475.594025,368.051361 480.833984,360.674988 
	C495.883911,339.488953 511.050934,318.386078 526.105713,297.203430 
	C540.579407,276.838379 554.994507,256.431580 569.361816,235.991394 
	C570.897766,233.806290 572.513428,231.975647 575.326233,232.207642 
	C578.094360,232.435959 579.067383,234.555008 579.692627,236.981232 
	C580.230774,239.069595 582.081909,240.083664 583.694702,241.269882 
	C588.524597,244.822250 593.362488,248.365158 598.133240,251.995911 
	C600.913330,254.111694 602.674072,256.979523 600.309021,260.136993 
	C597.810852,263.472260 594.864746,261.265747 592.415588,259.577942 
	C587.615662,256.270142 582.934509,252.789719 578.215576,249.365097 
	C576.399719,248.047318 574.717590,246.607635 572.813721,249.385925 
	C571.123230,251.852844 570.940002,253.835571 573.623535,255.730133 
	C577.704224,258.611176 581.710510,261.599457 585.704956,264.599976 
	C587.299011,265.797394 588.878296,267.047852 590.284302,268.454102 
	C592.290344,270.460480 592.849792,272.848206 590.848511,275.143738 
	C588.844299,277.442657 586.496399,277.160431 584.174072,275.454132 
	C579.745605,272.200378 575.276306,269.001465 570.875610,265.710724 
	C563.872620,260.474030 563.415771,260.602570 559.581177,269.677612 
	C564.977905,273.643860 570.460266,277.664429 575.930908,281.700958 
	C577.001465,282.490875 578.107422,283.259155 579.056152,284.182220 
	C581.268616,286.334625 581.817810,288.808746 579.651184,291.255951 
	C577.659058,293.506104 575.233093,293.382751 572.933594,291.675964 
	C568.252136,288.201080 563.651794,284.616913 558.970337,281.141998 
	C557.258545,279.871338 555.674011,278.322052 553.476501,277.914886 
	C547.959045,283.070831 547.989136,284.035492 553.918945,288.451050 
	C558.194763,291.634979 562.617737,294.631134 566.775208,297.960541 
	C569.351807,300.024048 571.469543,302.724243 568.668945,306.051270 
	C565.982300,309.242950 563.323059,307.367676 560.820312,305.491882 
	C555.888306,301.795471 550.941284,298.118683 546.033508,294.390411 
	C544.148926,292.958771 542.105469,291.708618 540.711609,294.573059 
	C539.469299,297.125916 535.154968,299.573761 539.754150,302.924316 
	C544.061707,306.062347 548.306396,309.286530 552.582397,312.467926 
	C553.116882,312.865601 553.714050,313.187012 554.213257,313.622772 
	C557.071594,316.117950 560.889282,318.387909 557.997009,323.024353 
	C556.087891,326.084747 552.866882,325.443420 548.119934,321.790771 
	C542.604248,317.546600 536.931152,313.507050 530.646179,308.877655 
	C517.523010,327.162872 504.685638,345.049988 491.726288,363.106995 
	C509.450104,371.070404 550.492371,366.844910 578.598145,342.618103 
	C611.261108,314.463104 621.478516,267.043762 603.027649,227.376923 
	C583.608337,185.627991 541.738037,168.629990 511.576141,170.859177 
	C513.259338,175.802490 513.064880,180.920715 513.945007,185.926758 
	C514.438599,188.734421 516.173401,190.110550 518.831482,190.932663 
	C529.367920,194.191544 533.375488,202.962433 529.032471,213.256409 
	C527.221375,217.549088 525.085815,221.703873 523.165833,225.952103 
	C522.440979,227.555984 521.097961,228.974396 521.441345,231.484131 
	C526.338928,226.979218 530.969910,222.729797 535.589233,218.467743 
	C540.820190,213.641373 546.619385,211.596848 553.367065,215.111603 
	C559.408875,218.258652 563.770508,227.084824 562.893860,234.213989 
	C562.568359,236.860565 562.161743,239.592514 560.525208,241.777069 
	C553.801147,250.752686 546.435974,259.116486 536.352478,264.482147 
	C530.935974,267.364410 525.261536,267.627747 519.467224,265.283173 
	C514.097534,263.110443 505.947754,267.733734 504.992096,273.647034 
	C503.585876,282.348694 502.599213,291.099548 499.644012,299.501251 
	C492.356262,320.220520 479.099701,337.078583 464.993988,353.377838 
	C462.841125,355.865479 459.890381,357.548462 456.746521,354.584045 
	C453.796143,351.802032 454.602020,348.915192 456.983002,346.217346 
	C465.917603,336.093842 474.461426,325.715332 481.518921,314.113708 
	C489.132568,301.597839 493.317902,288.116547 494.645508,273.639069 
	C494.736298,272.648987 494.715607,271.635925 494.618958,270.645996 
	C494.558105,270.022858 494.258972,269.423004 494.002106,268.607574 
	C489.760010,268.705780 486.218750,270.492920 482.728607,272.340118 
	C464.272644,282.108124 450.580231,296.934052 438.919250,313.863861 
	C435.804504,318.385986 432.727325,322.961914 430.509857,328.025360 
	C429.379486,330.606506 427.527100,332.119263 424.673523,331.683136 
	C421.693573,331.227722 419.852386,329.374512 419.803162,326.255981 
	C419.763611,323.750458 418.403870,321.855103 417.296234,319.826141 
	C394.305878,277.713196 402.805267,222.598114 437.841949,189.777039 
	C456.845947,171.974777 479.548676,161.846649 505.756866,160.747406 
	C551.673279,158.821564 587.193909,177.526154 608.777161,217.960434 
	C630.008484,257.735535 626.619324,297.449127 599.917603,334.105621 
	C582.516602,357.993958 558.258057,371.339325 528.663818,375.894409 
M485.887878,220.797943 
	C489.201294,213.715393 492.493225,206.622665 495.842773,199.557251 
	C496.707916,197.732330 497.989166,196.222961 499.700287,195.062561 
	C506.399933,190.519180 508.080414,183.696747 504.969513,176.174210 
	C503.157196,171.791870 500.474213,170.728546 496.018097,171.573212 
	C436.245270,182.903290 401.290100,241.194000 419.604584,299.326660 
	C421.112671,304.113464 422.352203,309.187988 426.110352,313.332642 
	C429.565796,308.640167 432.659515,304.134460 436.061157,299.874664 
	C447.773529,285.207581 460.295319,271.123932 477.907104,263.632477 
	C485.159851,260.547394 488.537445,256.383026 489.678345,249.173553 
	C490.010437,247.075073 490.218231,245.360336 488.896698,243.563934 
	C483.945251,236.833313 483.867676,229.352188 485.887878,220.797943 
M503.521118,207.031433 
	C501.176178,211.817612 498.741913,216.562592 496.511353,221.401489 
	C494.269409,226.265076 493.628601,231.317505 495.860504,236.375473 
	C496.999329,238.956268 498.938904,240.649521 501.983154,240.801163 
	C504.956421,240.949280 506.098602,238.927460 506.927216,236.686356 
	C510.287323,227.598175 515.029907,219.159744 519.142151,210.425705 
	C520.287354,207.993286 521.616577,205.530014 519.596924,202.946442 
	C517.467163,200.222000 514.475159,200.098038 511.405701,200.549622 
	C507.832764,201.075241 505.288788,203.018890 503.521118,207.031433 
M549.031738,240.483994 
	C551.164185,238.517029 552.895081,236.239929 553.198792,233.296310 
	C553.553345,229.861038 552.931335,226.627563 549.797974,224.502197 
	C547.117798,222.684296 544.649719,223.555145 542.558838,225.532394 
	C534.705200,232.959183 526.799133,240.338028 519.170044,247.991302 
	C515.780334,251.391769 517.284973,254.879684 522.150269,255.687317 
	C528.399536,256.724701 534.046204,255.699036 538.640930,250.865982 
	C541.849731,247.490784 545.224182,244.273102 549.031738,240.483994 
z"/>
<path fill="#000000" opacity="1.000000" stroke="none" 
	d="
M630.293091,291.256683 
	C633.848938,268.922974 632.800842,247.389694 624.837158,226.454025 
	C622.164490,219.427689 618.869873,212.717300 614.889343,206.330444 
	C612.865051,203.082397 611.217102,199.609756 615.309021,196.663254 
	C618.477783,194.381500 622.554688,195.852585 625.228455,200.435867 
	C640.275391,226.228455 647.240479,253.895889 643.441040,283.742798 
	C637.111267,333.467010 610.485718,368.595978 565.297791,389.454315 
	C539.285645,401.461304 511.817383,404.139038 483.783600,397.892334 
	C438.240356,387.744019 406.140350,360.737000 389.415253,317.508148 
	C359.500092,240.187317 402.780457,159.260132 480.820740,140.453003 
	C504.867432,134.657959 528.734802,135.971802 552.315735,143.277893 
	C555.964539,144.408401 559.312622,145.801834 559.357178,150.471924 
	C559.402893,155.270096 556.203186,157.619171 551.238037,156.000977 
	C543.145264,153.363464 534.976501,151.124344 526.504089,150.162354 
	C492.345886,146.283890 461.622864,154.849258 435.176025,176.794830 
	C405.272369,201.608948 391.228821,234.243942 392.464813,272.739990 
	C394.319489,330.505402 434.987915,376.756042 489.305145,386.210449 
	C538.539612,394.780151 579.168396,377.983398 609.892578,338.464508 
	C620.570374,324.730194 626.899231,308.778748 630.293091,291.256683 
z"/>
</svg>